<?xml version="1.0" encoding="UTF-8"?>
<svg width="32" height="32" viewBox="0 0 32 32" xmlns="http://www.w3.org/2000/svg">
  <!-- Black background -->
  <rect width="32" height="32" fill="#000000"/>
  
  <!-- Golden gradient background -->
  <defs>
    <linearGradient id="goldGradient" x1="0%" y1="0%" x2="100%" y2="100%">
      <stop offset="0%" style="stop-color:#FFD700;stop-opacity:1" />
      <stop offset="100%" style="stop-color:#FFA500;stop-opacity:1" />
    </linearGradient>
    <linearGradient id="blueGradient" x1="0%" y1="0%" x2="100%" y2="100%">
      <stop offset="0%" style="stop-color:#00BFFF;stop-opacity:1" />
      <stop offset="100%" style="stop-color:#0080FF;stop-opacity:1" />
    </linearGradient>
  </defs>
  
  <!-- Stylized "B" with luxury aesthetic -->
  <path d="M 8 6 L 18 6 Q 24 6 24 12 Q 24 16 20 17 Q 26 18 26 23 Q 26 26 22 26 L 8 26 Z M 12 10 L 12 15 L 17 15 Q 20 15 20 12 Q 20 10 17 10 Z M 12 19 L 12 22 L 18 22 Q 21 22 21 20.5 Q 21 19 18 19 Z" 
        fill="url(#goldGradient)" />
  
  <!-- AI neural network dots -->
  <circle cx="26" cy="8" r="1.5" fill="url(#blueGradient)" />
  <circle cx="28" cy="16" r="1.5" fill="url(#goldGradient)" />
  <circle cx="26" cy="24" r="1.5" fill="url(#blueGradient)" />
  
  <!-- Connection lines -->
  <line x1="24" y1="12" x2="26" y2="8" stroke="#FFD700" stroke-width="0.5" opacity="0.6" />
  <line x1="24" y1="16" x2="28" y2="16" stroke="#00BFFF" stroke-width="0.5" opacity="0.6" />
  <line x1="24" y1="20" x2="26" y2="24" stroke="#FFD700" stroke-width="0.5" opacity="0.6" />
</svg>